<svg xmlns="http://www.w3.org/2000/svg"><defs><symbol id="arrow-right" viewBox="0 0 24 24" fill="none" stroke="currentColor" stroke-width="2" stroke-linecap="round" stroke-linejoin="round"><path d="M5 12h14" xmlns="http://www.w3.org/2000/svg" /><path d="m12 5 7 7-7 7" xmlns="http://www.w3.org/2000/svg" /></symbol><symbol id="bookmark" viewBox="0 0 24 24" fill="none" stroke="currentColor" stroke-width="2" stroke-linecap="round" stroke-linejoin="round"><path d="M17 3a2 2 0 0 1 2 2v15a1 1 0 0 1-1.496.868l-4.512-2.578a2 2 0 0 0-1.984 0l-4.512 2.578A1 1 0 0 1 5 20V5a2 2 0 0 1 2-2z" xmlns="http://www.w3.org/2000/svg" /></symbol><symbol id="circle-alert" viewBox="0 0 24 24" fill="none" stroke="currentColor" stroke-width="2" stroke-linecap="round" stroke-linejoin="round"><circle cx="12" cy="12" r="10" xmlns="http://www.w3.org/2000/svg" /><line x1="12" x2="12" y1="8" y2="12" xmlns="http://www.w3.org/2000/svg" /><line x1="12" x2="12.01" y1="16" y2="16" xmlns="http://www.w3.org/2000/svg" /></symbol><symbol id="download" viewBox="0 0 24 24" fill="none" stroke="currentColor" stroke-width="2" stroke-linecap="round" stroke-linejoin="round"><path d="M12 15V3" xmlns="http://www.w3.org/2000/svg" /><path d="M21 15v4a2 2 0 0 1-2 2H5a2 2 0 0 1-2-2v-4" xmlns="http://www.w3.org/2000/svg" /><path d="m7 10 5 5 5-5" xmlns="http://www.w3.org/2000/svg" /></symbol><symbol id="grip" viewBox="0 0 24 24" fill="none" stroke="currentColor" stroke-width="2" stroke-linecap="round" stroke-linejoin="round"><circle cx="12" cy="5" r="1" xmlns="http://www.w3.org/2000/svg" /><circle cx="19" cy="5" r="1" xmlns="http://www.w3.org/2000/svg" /><circle cx="5" cy="5" r="1" xmlns="http://www.w3.org/2000/svg" /><circle cx="12" cy="12" r="1" xmlns="http://www.w3.org/2000/svg" /><circle cx="19" cy="12" r="1" xmlns="http://www.w3.org/2000/svg" /><circle cx="5" cy="12" r="1" xmlns="http://www.w3.org/2000/svg" /><circle cx="12" cy="19" r="1" xmlns="http://www.w3.org/2000/svg" /><circle cx="19" cy="19" r="1" xmlns="http://www.w3.org/2000/svg" /><circle cx="5" cy="19" r="1" xmlns="http://www.w3.org/2000/svg" /></symbol><symbol id="heart" viewBox="0 0 24 24" fill="none" stroke="currentColor" stroke-width="2" stroke-linecap="round" stroke-linejoin="round"><path d="M2 9.5a5.5 5.5 0 0 1 9.591-3.676.56.56 0 0 0 .818 0A5.49 5.49 0 0 1 22 9.5c0 2.29-1.5 4-3 5.5l-5.492 5.313a2 2 0 0 1-3 .019L5 15c-1.5-1.5-3-3.2-3-5.5" xmlns="http://www.w3.org/2000/svg" /></symbol><symbol id="key-round" viewBox="0 0 24 24" fill="none" stroke="currentColor" stroke-width="2" stroke-linecap="round" stroke-linejoin="round"><path d="M2.586 17.414A2 2 0 0 0 2 18.828V21a1 1 0 0 0 1 1h3a1 1 0 0 0 1-1v-1a1 1 0 0 1 1-1h1a1 1 0 0 0 1-1v-1a1 1 0 0 1 1-1h.172a2 2 0 0 0 1.414-.586l.814-.814a6.5 6.5 0 1 0-4-4z" xmlns="http://www.w3.org/2000/svg" /><circle cx="16.5" cy="7.5" r=".5" fill="currentColor" xmlns="http://www.w3.org/2000/svg" /></symbol><symbol id="log-out" viewBox="0 0 24 24" fill="none" stroke="currentColor" stroke-width="2" stroke-linecap="round" stroke-linejoin="round"><path d="m16 17 5-5-5-5" xmlns="http://www.w3.org/2000/svg" /><path d="M21 12H9" xmlns="http://www.w3.org/2000/svg" /><path d="M9 21H5a2 2 0 0 1-2-2V5a2 2 0 0 1 2-2h4" xmlns="http://www.w3.org/2000/svg" /></symbol><symbol id="map-pin" viewBox="0 0 24 24" fill="none" stroke="currentColor" stroke-width="2" stroke-linecap="round" stroke-linejoin="round"><path d="M20 10c0 4.993-5.539 10.193-7.399 11.799a1 1 0 0 1-1.202 0C9.539 20.193 4 14.993 4 10a8 8 0 0 1 16 0" xmlns="http://www.w3.org/2000/svg" /><circle cx="12" cy="10" r="3" xmlns="http://www.w3.org/2000/svg" /></symbol><symbol id="package" viewBox="0 0 24 24" fill="none" stroke="currentColor" stroke-width="2" stroke-linecap="round" stroke-linejoin="round"><path d="M11 21.73a2 2 0 0 0 2 0l7-4A2 2 0 0 0 21 16V8a2 2 0 0 0-1-1.73l-7-4a2 2 0 0 0-2 0l-7 4A2 2 0 0 0 3 8v8a2 2 0 0 0 1 1.73z" xmlns="http://www.w3.org/2000/svg" /><path d="M12 22V12" xmlns="http://www.w3.org/2000/svg" /><polyline points="3.29 7 12 12 20.71 7" xmlns="http://www.w3.org/2000/svg" /><path d="m7.5 4.27 9 5.15" xmlns="http://www.w3.org/2000/svg" /></symbol><symbol id="search" viewBox="0 0 24 24" fill="none" stroke="currentColor" stroke-width="2" stroke-linecap="round" stroke-linejoin="round"><path d="m21 21-4.34-4.34" xmlns="http://www.w3.org/2000/svg" /><circle cx="11" cy="11" r="8" xmlns="http://www.w3.org/2000/svg" /></symbol><symbol id="share-2" viewBox="0 0 24 24" fill="none" stroke="currentColor" stroke-width="2" stroke-linecap="round" stroke-linejoin="round"><circle cx="18" cy="5" r="3" xmlns="http://www.w3.org/2000/svg" /><circle cx="6" cy="12" r="3" xmlns="http://www.w3.org/2000/svg" /><circle cx="18" cy="19" r="3" xmlns="http://www.w3.org/2000/svg" /><line x1="8.59" x2="15.42" y1="13.51" y2="17.49" xmlns="http://www.w3.org/2000/svg" /><line x1="15.41" x2="8.59" y1="6.51" y2="10.49" xmlns="http://www.w3.org/2000/svg" /></symbol><symbol id="shield-check" viewBox="0 0 24 24" fill="none" stroke="currentColor" stroke-width="2" stroke-linecap="round" stroke-linejoin="round"><path d="M20 13c0 5-3.5 7.5-7.66 8.95a1 1 0 0 1-.67-.01C7.5 20.5 4 18 4 13V6a1 1 0 0 1 1-1c2 0 4.5-1.2 6.24-2.72a1.17 1.17 0 0 1 1.52 0C14.51 3.81 17 5 19 5a1 1 0 0 1 1 1z" xmlns="http://www.w3.org/2000/svg" /><path d="m9 12 2 2 4-4" xmlns="http://www.w3.org/2000/svg" /></symbol><symbol id="shopping-bag" viewBox="0 0 24 24" fill="none" stroke="currentColor" stroke-width="2" stroke-linecap="round" stroke-linejoin="round"><path d="M16 10a4 4 0 0 1-8 0" xmlns="http://www.w3.org/2000/svg" /><path d="M3.103 6.034h17.794" xmlns="http://www.w3.org/2000/svg" /><path d="M3.4 5.467a2 2 0 0 0-.4 1.2V20a2 2 0 0 0 2 2h14a2 2 0 0 0 2-2V6.667a2 2 0 0 0-.4-1.2l-2-2.667A2 2 0 0 0 17 2H7a2 2 0 0 0-1.6.8z" xmlns="http://www.w3.org/2000/svg" /></symbol><symbol id="sparkles" viewBox="0 0 24 24" fill="none" stroke="currentColor" stroke-width="2" stroke-linecap="round" stroke-linejoin="round"><path d="M11.017 2.814a1 1 0 0 1 1.966 0l1.051 5.558a2 2 0 0 0 1.594 1.594l5.558 1.051a1 1 0 0 1 0 1.966l-5.558 1.051a2 2 0 0 0-1.594 1.594l-1.051 5.558a1 1 0 0 1-1.966 0l-1.051-5.558a2 2 0 0 0-1.594-1.594l-5.558-1.051a1 1 0 0 1 0-1.966l5.558-1.051a2 2 0 0 0 1.594-1.594z" xmlns="http://www.w3.org/2000/svg" /><path d="M20 2v4" xmlns="http://www.w3.org/2000/svg" /><path d="M22 4h-4" xmlns="http://www.w3.org/2000/svg" /><circle cx="4" cy="20" r="2" xmlns="http://www.w3.org/2000/svg" /></symbol><symbol id="sun-moon" viewBox="0 0 24 24" fill="none" stroke="currentColor" stroke-width="2" stroke-linecap="round" stroke-linejoin="round"><path d="M12 2v2" xmlns="http://www.w3.org/2000/svg" /><path d="M14.837 16.385a6 6 0 1 1-7.223-7.222c.624-.147.97.66.715 1.248a4 4 0 0 0 5.26 5.259c.589-.255 1.396.09 1.248.715" xmlns="http://www.w3.org/2000/svg" /><path d="M16 12a4 4 0 0 0-4-4" xmlns="http://www.w3.org/2000/svg" /><path d="m19 5-1.256 1.256" xmlns="http://www.w3.org/2000/svg" /><path d="M20 12h2" xmlns="http://www.w3.org/2000/svg" /></symbol><symbol id="user-round" viewBox="0 0 24 24" fill="none" stroke="currentColor" stroke-width="2" stroke-linecap="round" stroke-linejoin="round"><circle cx="12" cy="8" r="5" xmlns="http://www.w3.org/2000/svg" /><path d="M20 21a8 8 0 0 0-16 0" xmlns="http://www.w3.org/2000/svg" /></symbol></defs></svg>
